# xmcd
#
# Track frame offsets: 
#        150
#        23510
#        51077
#        83865
#        112515
#        131810
#        148170
#        166035
#        202850
#
# Disc length: 3009 seconds
#
# Revision: 1
# Processed by: cddbd v1.5.2PL0 Copyright (c) Steve Scherf et al.
# Submitted via: ExactAudioCopy v1.0b3
#
DISCID=680bbf09
DTITLE=Fania All Stars - With Ismael Miranda
DYEAR=2000
DGENRE=Salsa
TTITLE0=Lamento De Un Guajiro
TTITLE1=Que Barbaridad
TTITLE2=El Caminante
TTITLE3=Publico Corriente
TTITLE4=Que Rico Suena Mi Tambor
TTITLE5=Te Pareces A Judas
TTITLE6=Caimitillo and Maranon
TTITLE7=Borinquen Tiene Montuno
TTITLE8=El Agua De Blen
EXTD=YEAR: 2000
EXTT0=
EXTT1=
EXTT2=
EXTT3=
EXTT4=
EXTT5=
EXTT6=
EXTT7=
EXTT8=
PLAYORDER=
